<svg xmlns="http://www.w3.org/2000/svg" viewBox="0 0 900 560" role="img" aria-labelledby="title desc">
  <title id="title">Convite de leitura da Metodologia ABC</title>
  <desc id="desc">Composicao editorial com livro aberto, bola e camera para convidar a leitura sobre audiovisual, bola e camera.</desc>
  <defs>
    <linearGradient id="bg" x1="0" y1="0" x2="1" y2="1">
      <stop offset="0" stop-color="#17243a"/>
      <stop offset="0.58" stop-color="#11130f"/>
      <stop offset="1" stop-color="#2e6f46"/>
    </linearGradient>
    <radialGradient id="gold" cx="28%" cy="18%" r="75%">
      <stop offset="0" stop-color="#f2c230" stop-opacity="0.72"/>
      <stop offset="0.5" stop-color="#f2c230" stop-opacity="0.13"/>
      <stop offset="1" stop-color="#f2c230" stop-opacity="0"/>
    </radialGradient>
    <filter id="shadow" x="-20%" y="-20%" width="140%" height="140%">
      <feDropShadow dx="0" dy="18" stdDeviation="18" flood-color="#000" flood-opacity="0.32"/>
    </filter>
  </defs>
  <rect width="900" height="560" rx="36" fill="url(#bg)"/>
  <rect width="900" height="560" rx="36" fill="url(#gold)"/>
  <path d="M62 72 C180 42 290 88 382 58 C486 25 566 20 694 62 C760 84 810 98 850 80" fill="none" stroke="#f6edd7" stroke-opacity="0.14" stroke-width="2"/>
  <g transform="translate(76 78)">
    <text x="0" y="0" fill="#f2c230" font-family="Manrope, Arial, sans-serif" font-size="23" font-weight="900" letter-spacing="5">METODOLOGIA ABC</text>
    <text x="0" y="58" fill="#f6edd7" font-family="Archivo Black, Arial Black, sans-serif" font-size="52" letter-spacing="-2">LER</text>
    <text x="0" y="112" fill="#f6edd7" font-family="Archivo Black, Arial Black, sans-serif" font-size="52" letter-spacing="-2">JOGAR</text>
    <text x="0" y="166" fill="#f6edd7" font-family="Archivo Black, Arial Black, sans-serif" font-size="52" letter-spacing="-2">FILMAR</text>
    <text x="4" y="212" fill="#f6edd7" fill-opacity="0.76" font-family="IBM Plex Serif, Georgia, serif" font-size="23">Audiovisual, bola e camera</text>
    <text x="4" y="244" fill="#f6edd7" fill-opacity="0.76" font-family="IBM Plex Serif, Georgia, serif" font-size="23">para pesquisar culturas,</text>
    <text x="4" y="276" fill="#f6edd7" fill-opacity="0.76" font-family="IBM Plex Serif, Georgia, serif" font-size="23">territorios e memorias.</text>
  </g>
  <g filter="url(#shadow)" transform="translate(360 96)">
    <path d="M0 92 C60 58 141 61 214 103 L214 344 C136 303 64 306 0 341 Z" fill="#fffaf0"/>
    <path d="M306 103 C379 61 460 58 520 92 L520 341 C456 306 384 303 306 344 Z" fill="#fffaf0"/>
    <path d="M214 103 C242 86 278 86 306 103 L306 344 C278 327 242 327 214 344 Z" fill="#f6edd7"/>
    <path d="M32 140 H175 M32 178 H166 M32 216 H182 M336 140 H484 M336 178 H462 M336 216 H476" stroke="#231d18" stroke-opacity="0.28" stroke-width="8" stroke-linecap="round"/>
  </g>
  <g transform="translate(476 336)">
    <circle cx="64" cy="64" r="58" fill="#f2c230" stroke="#11130f" stroke-opacity="0.35" stroke-width="5"/>
    <path d="M64 11 L83 47 L122 53 L94 82 L101 121 L64 103 L27 121 L34 82 L6 53 L45 47 Z" fill="#11130f" fill-opacity="0.16"/>
    <path d="M24 38 C52 58 80 58 104 38 M26 88 C54 72 82 72 102 88" fill="none" stroke="#11130f" stroke-opacity="0.28" stroke-width="5"/>
  </g>
  <g transform="translate(666 346)">
    <rect x="0" y="22" width="168" height="108" rx="22" fill="#9e4a2f"/>
    <rect x="22" y="0" width="70" height="42" rx="12" fill="#f6edd7"/>
    <circle cx="88" cy="76" r="34" fill="#17243a" stroke="#f6edd7" stroke-width="12"/>
    <circle cx="88" cy="76" r="13" fill="#f2c230"/>
    <rect x="126" y="44" width="24" height="16" rx="6" fill="#f2c230"/>
  </g>
  <g transform="translate(76 458)">
    <rect x="0" y="0" width="300" height="46" rx="23" fill="#f2c230"/>
    <text x="24" y="30" fill="#11130f" font-family="Manrope, Arial, sans-serif" font-size="16" font-weight="900" letter-spacing="2">CONVITE A LEITURA</text>
  </g>
</svg>
